<svg width="21" height="19" viewBox="0 0 21 19" fill="none" xmlns="http://www.w3.org/2000/svg">
<path d="M0.5 13C2.17 12.25 3.83 11.5 5.5 11.17V3C5.5 2.20435 5.81607 1.44129 6.37868 0.87868C6.94129 0.316071 7.70435 0 8.5 0C9.81 0 10.92 0.83 11.33 2H8.5C8.23478 2 7.98043 2.10536 7.79289 2.29289C7.60536 2.48043 7.5 2.73478 7.5 3V4H12.5V3C12.5 2.20435 12.8161 1.44129 13.3787 0.87868C13.9413 0.316071 14.7044 0 15.5 0C16.81 0 17.92 0.83 18.33 2H15.5C15.2348 2 14.9804 2.10536 14.7929 2.29289C14.6054 2.48043 14.5 2.73478 14.5 3V12.94C16.5 12.62 18.5 11 20.5 11V13C18.28 13 16.06 15 13.83 15C11.61 15 9.39 13 7.17 13C4.94 13 2.72 14 0.5 15V13ZM12.5 6H7.5V8H12.5V6ZM12.5 10H7.5V11C9.17 11.16 10.83 12.31 12.5 12.79V10ZM0.5 17C2.72 16 4.94 15 7.17 15C9.39 15 11.61 17 13.83 17C16.06 17 18.28 15 20.5 15V17C18.28 17 16.06 19 13.83 19C11.61 19 9.39 17 7.17 17C4.94 17 2.72 18 0.5 19V17Z" fill="#212121"/>
</svg>
