<svg width="18" height="16" viewBox="0 0 18 16" fill="none" xmlns="http://www.w3.org/2000/svg">
<path d="M5.66666 8.83333C4.11666 8.83333 2.82499 9.9 2.44999 11.3333H0.666656V13H2.44999C2.82499 14.4333 4.11666 15.5 5.66666 15.5C7.21666 15.5 8.50832 14.4333 8.88332 13H17.3333V11.3333H8.88332C8.50832 9.9 7.21666 8.83333 5.66666 8.83333ZM5.66666 13.8333C4.74999 13.8333 3.99999 13.0833 3.99999 12.1667C3.99999 11.25 4.74999 10.5 5.66666 10.5C6.58332 10.5 7.33332 11.25 7.33332 12.1667C7.33332 13.0833 6.58332 13.8333 5.66666 13.8333ZM15.55 3C15.175 1.56667 13.8833 0.5 12.3333 0.5C10.7833 0.5 9.49166 1.56667 9.11666 3H0.666656V4.66667H9.11666C9.49166 6.1 10.7833 7.16667 12.3333 7.16667C13.8833 7.16667 15.175 6.1 15.55 4.66667H17.3333V3H15.55ZM12.3333 5.5C11.4167 5.5 10.6667 4.75 10.6667 3.83333C10.6667 2.91667 11.4167 2.16667 12.3333 2.16667C13.25 2.16667 14 2.91667 14 3.83333C14 4.75 13.25 5.5 12.3333 5.5Z" fill="#212121"/>
</svg>
