<svg width="20" height="21" viewBox="0 0 20 21" fill="none" xmlns="http://www.w3.org/2000/svg">
<path d="M18 19C16.61 19 15.22 18.53 14 17.67C11.56 19.38 8.44 19.38 6 17.67C4.78 18.53 3.39 19 2 19H0V21H2C3.37 21 4.74 20.65 6 20C8.5 21.3 11.5 21.3 14 20C15.26 20.65 16.62 21 18 21H20V19H18ZM18.78 18H18C16.82 18 15.64 17.6 14.58 16.85L14 16.45L13.42 16.85C12.39 17.57 11.21 17.95 10 17.95C8.77 17.95 7.59 17.57 6.56 16.85L6 16.45L5.43 16.85C4.36 17.6 3.18 18 2 18H1.22C1.75 16.54 3.58 14 10 14C12 14 13 14.24 13 14.24C13.68 12.87 14.83 9.77 14 5.82L15.06 6.53C15.39 7.96 16 10.75 14.8 14.65C17.43 15.5 18.42 17 18.78 18ZM20 6.59C19.21 5.5 18 4.71 16.58 4.53C16.7 4.67 16.81 4.83 16.92 5C18.12 6.91 17.87 9.32 16.47 10.95C17.06 9.5 17 7.79 16.08 6.36C16 6.28 15.96 6.2 15.9 6.11C15.5 5.53 14.96 5.06 14.38 4.72C12.35 5.37 10.88 7.27 10.88 9.5C10.88 10.03 10.96 10.53 11.1 11C10.5 10.17 10.16 9.17 10.16 8.07C10.16 6.41 10.96 4.95 12.2 4.03C11.16 3.95 10.09 4.18 9.14 4.78C8.7 5.05 8.32 5.38001 8 5.76C8.39 4.82 9.05 4 10 3.4C11.04 2.74 12.25 2.5 13.39 2.69C13.1 2.29 12.75 1.92 12.33 1.6C11.92 1.29 11.47 1.05 11 0.880005C12 0.910005 13.04 1.24001 13.91 1.89C14.35 2.22001 14.7 2.62 15 3.05C15.06 3.05 15.12 3.04 15.19 3.04C17.45 3.04 19.37 4.53 20 6.59Z" fill="#212121"/>
</svg>
