<svg width="18" height="18" viewBox="0 0 18 18" fill="none" xmlns="http://www.w3.org/2000/svg">
<rect width="18" height="18" fill="#E5E5E5"/>
<g clip-path="url(#clip0_0_1)">
<rect width="375" height="812" transform="translate(-44 -645)" fill="white"/>
<g filter="url(#filter0_d_0_1)">
<rect x="-20" y="-135" width="327" height="174" rx="16" fill="#7F86FF"/>
</g>
<path d="M16 8.90915C16 5.09428 12.8638 2 9 2C5.13623 2 2 5.09428 2 8.90915C2 12.5233 5.33959 15.4543 9 15.4543V18C13.2515 15.8707 16 12.4448 16 8.90915Z" fill="#00897B"/>
<path d="M13.3802 5L12.4207 7.63816H7.12509L5 10.2355L12.7889 18H18V9.60526L13.3802 5Z" fill="url(#paint0_linear_0_1)"/>
<path opacity="0.2" fill-rule="evenodd" clip-rule="evenodd" d="M2.00126 7C2.02779 10.5406 5.35348 13.4035 9 13.4035V13.4931C5.33959 13.4931 2 10.6069 2 7.04788C2 7.0399 2.00032 7.03192 2.00063 7.02394C2.00095 7.01596 2.00126 7.00798 2.00126 7ZM9 16V15.9104C13.2326 13.8234 15.9747 10.4694 15.9987 7.00491C15.9987 7.01152 15.999 7.01841 15.9993 7.02546C15.9997 7.03283 16 7.04035 16 7.04788C16 10.5295 13.2515 13.9032 9 16ZM10.5662 9.73278H5.96102C5.72483 9.73278 5.4899 9.64561 5.30927 9.47006C5.12865 9.2945 5.03898 9.06616 5.03898 8.83658V8.9262C5.03898 9.15578 5.12865 9.38412 5.30927 9.55968C5.4899 9.73523 5.72483 9.8224 5.96102 9.8224H10.5662C10.8024 9.8224 11.0374 9.73523 11.218 9.55968C11.3911 9.39182 11.4884 9.16388 11.4883 8.9262V8.83658C11.4883 9.06616 11.3986 9.2945 11.218 9.47006C11.0374 9.64561 10.8012 9.73278 10.5662 9.73278ZM13.3286 9.59896L11.487 7.80903V7.71941L13.3286 9.50934V9.59896Z" fill="#263238"/>
<path d="M11.9995 7.87457V6.8339C11.9995 6.62029 11.9022 6.40781 11.7061 6.24446C11.5187 6.08789 11.2641 5.99993 10.9986 6H6.00091C5.74452 6 5.48949 6.08111 5.29342 6.24446C5.10549 6.40065 4.99991 6.61275 5 6.8339V10.1661C5 10.3797 5.09735 10.5922 5.29342 10.7555C5.48949 10.9189 5.74452 11 6.00091 11H11C11.2564 11 11.5114 10.9189 11.7075 10.7555C11.8954 10.5993 12.001 10.3873 12.0009 10.1661V9.12543L14 10.791V6.20905L11.9995 7.87457Z" fill="#F5F5F5"/>
<path d="M5 6.33455V9H14V5.33455L12.0003 8V6.33455C12.0003 5.99269 11.9029 5.65265 11.7068 5.39122C11.5193 5.14065 11.2646 4.99988 10.9991 5H5.99985C5.74337 5 5.48827 5.1298 5.29214 5.39122C5.10453 5.64138 4.9994 5.98084 5 6.33455Z" fill="#E0E0E0"/>
<path d="M5 6.93427H14V7.06567H5V6.93427Z" fill="#212121" fill-opacity="0.02"/>
<path d="M5.04944 7.09498H13.3185V7.22638H5.04944V7.09498Z" fill="white" fill-opacity="0.05"/>
<path opacity="0.2" fill-rule="evenodd" clip-rule="evenodd" d="M10.5625 4.38675H5.968C5.72408 4.3869 5.4902 4.48521 5.31777 4.66006C5.13757 4.84269 5.0481 5.08024 5.0481 5.31906V5.22583C5.04801 4.97857 5.14505 4.74145 5.31777 4.56683C5.49797 4.3842 5.73235 4.29352 5.968 4.29352H10.5625C10.8065 4.29343 11.0404 4.39178 11.2127 4.56683C11.3929 4.74946 11.4824 4.987 11.4824 5.22583V5.31843C11.4823 5.0714 11.3853 4.83453 11.2127 4.66006C11.0325 4.47743 10.7981 4.38675 10.5625 4.38675ZM11.4811 6.48253V6.3893L13.3184 4.52723V4.62047L11.4811 6.48253Z" fill="white"/>
<path opacity="0.2" d="M8.99996 0.103236C12.8396 0.103236 15.9585 3.24755 15.9824 7.13516C15.9824 7.11856 15.9837 7.10324 15.9837 7.08663C15.9837 3.17859 12.8547 0.00872803 8.99996 0.00872803C5.14518 0.00872803 2.01624 3.17986 2.01624 7.08791C2.01624 7.10324 2.0175 7.11728 2.0175 7.13133C2.04396 3.24628 5.16156 0.103236 8.99996 0.103236Z" fill="white"/>
</g>
<defs>
<filter id="filter0_d_0_1" x="-40" y="-143" width="367" height="214" filterUnits="userSpaceOnUse" color-interpolation-filters="sRGB">
<feFlood flood-opacity="0" result="BackgroundImageFix"/>
<feColorMatrix in="SourceAlpha" type="matrix" values="0 0 0 0 0 0 0 0 0 0 0 0 0 0 0 0 0 0 127 0" result="hardAlpha"/>
<feMorphology radius="4" operator="erode" in="SourceAlpha" result="effect1_dropShadow_0_1"/>
<feOffset dy="12"/>
<feGaussianBlur stdDeviation="12"/>
<feColorMatrix type="matrix" values="0 0 0 0 0.498039 0 0 0 0 0.52549 0 0 0 0 1 0 0 0 0.3 0"/>
<feBlend mode="normal" in2="BackgroundImageFix" result="effect1_dropShadow_0_1"/>
<feBlend mode="normal" in="SourceGraphic" in2="effect1_dropShadow_0_1" result="shape"/>
</filter>
<linearGradient id="paint0_linear_0_1" x1="5.62323" y1="10.3697" x2="11.9511" y2="16.6778" gradientUnits="userSpaceOnUse">
<stop stop-color="#263238" stop-opacity="0.2"/>
<stop offset="1" stop-color="#263238" stop-opacity="0.02"/>
</linearGradient>
<clipPath id="clip0_0_1">
<rect width="375" height="812" fill="white" transform="translate(-44 -645)"/>
</clipPath>
</defs>
</svg>
